# xmcd
#
# Track frame offsets:
#	150
#	34911
#	58896
#	82573
#	105464
#	131685
#	152768
#	196231
#	222506
#	240135
#	263154
#	280171
#	298208
#
# Disc length: 4170 seconds
#
# Revision: 2
# Processed by: cddbd v1.5.1PL2 Copyright (c) Steve Scherf et al.
# Submitted via: audiograbber 1.83.01
#
DISCID=b610480d
DTITLE=Me and My Uncle - Papas Tapas, 25. Feb. 2003 Vienna - CD2
DYEAR=2003
DGENRE=Blues
TTITLE0=Peace of Mind
TTITLE1=Old 55
TTITLE2=Hootchie Coochie Man
TTITLE3=Blues in the City
TTITLE4=Red Fox Down
TTITLE5=Deep Ellum Blues
TTITLE6=Feel Like Going Home
TTITLE7=Raiding Out
TTITLE8=Talk to Me Baby
TTITLE9=Hermann's Tune
TTITLE10=See the Light
TTITLE11=Franklin's Tower
TTITLE12=Back No More
EXTD=
EXTT0=
EXTT1=
EXTT2=
EXTT3=
EXTT4=
EXTT5=
EXTT6=
EXTT7=
EXTT8=
EXTT9=
EXTT10=
EXTT11=
EXTT12=
PLAYORDER=
